HIERARCHY
ROOT Hips
{
	OFFSET 0.000000 0.000000 0.000000
	CHANNELS 6 Xposition Yposition Zposition Xrotation Yrotation Zrotation
	JOINT LeftUpLeg_virtual
	{
		OFFSET 0.000000 0.000000 0.000000
		CHANNELS 3 Xrotation Yrotation Zrotation
		JOINT LeftUpLeg
		{
			OFFSET 13.026900 -6.336304 -1.092800
			CHANNELS 3 Xrotation Yrotation Zrotation
			JOINT LeftLeg
			{
				OFFSET 0.524474 -46.096886 9.782700
				CHANNELS 3 Xrotation Yrotation Zrotation
				JOINT LeftFoot
				{
					OFFSET -0.524474 -53.427422 -12.948200
					CHANNELS 3 Xrotation Yrotation Zrotation
					JOINT LeftToeBase
					{
						OFFSET 0.192200 -14.009700 16.364100
						CHANNELS 3 Xrotation Yrotation Zrotation
						JOINT LeftToe_End
						{
							OFFSET -1.784700 -0.561700 9.474800
							CHANNELS 3 Xrotation Yrotation Zrotation
							End Site
							{
								OFFSET 0 0 0
							}
						}
					}
				}
			}
		}
	}
	JOINT RightUpLeg_virtual
	{
		OFFSET 0.000000 0.000000 0.000000
		CHANNELS 3 Xrotation Yrotation Zrotation
		JOINT RightUpLeg
		{
			OFFSET -12.883000 -6.336304 -1.092800
			CHANNELS 3 Xrotation Yrotation Zrotation
			JOINT RightLeg
			{
				OFFSET -0.524587 -46.096825 9.782800
				CHANNELS 3 Xrotation Yrotation Zrotation
				JOINT RightFoot
				{
					OFFSET 0.524587 -53.427383 -12.948300
					CHANNELS 3 Xrotation Yrotation Zrotation
					JOINT RightToeBase
					{
						OFFSET -0.192200 -14.009700 16.364100
						CHANNELS 3 Xrotation Yrotation Zrotation
						JOINT RightToe_End
						{
							OFFSET 1.784700 -0.561700 9.474800
							CHANNELS 3 Xrotation Yrotation Zrotation
							End Site
							{
								OFFSET 0 0 0
							}
						}
					}
				}
			}
		}
	}
	JOINT Spine_virtual
	{
		OFFSET 0.000000 0.000000 0.000000
		CHANNELS 3 Xrotation Yrotation Zrotation
		JOINT Spine
		{
			OFFSET 0.072000 7.257294 -0.789700
			CHANNELS 3 Xrotation Yrotation Zrotation
			JOINT Spine1
			{
				OFFSET 0.000000 12.508769 -0.658067
				CHANNELS 3 Xrotation Yrotation Zrotation
				JOINT Spine1_split
				{
					OFFSET 0.000000 12.508769 -0.658067
					CHANNELS 3 Xrotation Yrotation Zrotation
					JOINT Spine2
					{
						OFFSET 0.000000 12.508769 -0.658067
						CHANNELS 3 Xrotation Yrotation Zrotation
						JOINT Neck_virtual
						{
							OFFSET 0.000000 0.000000 0.000000
							CHANNELS 3 Xrotation Yrotation Zrotation
							JOINT Neck
							{
								OFFSET 0.000000 14.033295 7.520400
								CHANNELS 3 Xrotation Yrotation Zrotation
								JOINT Head
								{
									OFFSET 0.000000 8.198502 5.703100
									CHANNELS 3 Xrotation Yrotation Zrotation
									JOINT HeadTop_End
									{
										OFFSET 0.000000 17.760803 13.332701
										CHANNELS 3 Xrotation Yrotation Zrotation
										End Site
										{
											OFFSET 0 0 0
										}
									}
								}
							}
						}
						JOINT LeftShoulder_virtual
						{
							OFFSET 0.000000 0.000000 0.000000
							CHANNELS 3 Xrotation Yrotation Zrotation
							JOINT LeftShoulder
							{
								OFFSET 6.292450 5.785301 -0.669000
								CHANNELS 3 Xrotation Yrotation Zrotation
								JOINT LeftShoulder_split
								{
									OFFSET 6.292450 5.785301 -0.669000
									CHANNELS 3 Xrotation Yrotation Zrotation
									JOINT LeftArm
									{
										OFFSET 13.907140 -6.093903 1.965100
										CHANNELS 3 Xrotation Yrotation Zrotation
										JOINT LeftForeArm
										{
											OFFSET 34.140198 0.000000 0.000000
											CHANNELS 3 Xrotation Yrotation Zrotation
											JOINT LeftHand
											{
												OFFSET 40.960209 0.000000 0.000000
												CHANNELS 3 Xrotation Yrotation Zrotation
												End Site
												{
													OFFSET 0 0 0
												}
											}
										}
									}
								}
							}
						}
						JOINT RightShoulder_virtual
						{
							OFFSET 0.000000 0.000000 0.000000
							CHANNELS 3 Xrotation Yrotation Zrotation
							JOINT RightShoulder
							{
								OFFSET -6.292450 5.785301 -0.669000
								CHANNELS 3 Xrotation Yrotation Zrotation
								JOINT RightShoulder_split
								{
									OFFSET -6.292450 5.785301 -0.669000
									CHANNELS 3 Xrotation Yrotation Zrotation
									JOINT RightArm
									{
										OFFSET -13.907140 -6.093903 1.965100
										CHANNELS 3 Xrotation Yrotation Zrotation
										JOINT RightForeArm
										{
											OFFSET -34.140198 0.000000 0.000000
											CHANNELS 3 Xrotation Yrotation Zrotation
											JOINT RightHand
											{
												OFFSET -40.960209 0.000000 0.000000
												CHANNELS 3 Xrotation Yrotation Zrotation
												End Site
												{
													OFFSET 0 0 0
												}
											}
										}
									}
								}
							}
						}
					}
				}
			}
		}
	}
}
MOTION
Frames: 7
Frame Time: 0.03333333
4.941154 104.538635 -6.139763 0.000000 0.000000 0.000000 2.248497 8.371549 -0.429490 -38.565690 6.254648 16.643945 51.421035 14.172834 -2.677441 8.086653 10.297956 -15.601327 -11.613097 -0.225608 -4.943630 0.000000 0.000000 0.000000 2.212823 7.234603 -0.028203 -28.440226 -5.746427 0.195232 42.492424 -3.532432 0.061949 -14.658097 -8.650379 1.356737 5.683401 2.967962 -10.234332 0.000000 0.000000 0.000000 2.715784 9.838392 -0.627593 8.478006 -0.902487 5.595640 4.667756 -0.174855 1.081210 0.025999 -0.310753 -0.014410 0.000000 0.000000 0.000000 6.305749 3.036847 1.008441 -1.515335 0.502819 -3.298077 -18.623727 -20.110923 -11.780931 0.000000 0.000000 0.000000 5.105621 1.666023 0.085841 3.455290 -9.274209 -10.075949 2.859859 -1.379106 -0.882256 -15.418017 -3.306043 -67.738203 0.594674 -35.525200 -1.614599 0.000000 0.000000 0.000000 7.181540 1.979504 0.692796 0.506162 14.154544 7.673492 0.340434 -0.956902 2.319664 -9.549305 -3.963821 64.553586 -9.098783 23.954619 10.091301 0.000000 0.000000 0.000000 
4.698141 104.656219 -4.779163 0.000000 0.000000 0.000000 2.022116 7.641984 -0.069149 -38.988520 7.224890 15.898187 49.540083 14.250663 -1.943997 7.564213 9.511004 -14.597214 -12.100010 -0.211169 -4.700011 0.000000 0.000000 0.000000 2.591918 6.522647 0.356996 -28.159277 -6.215171 0.118125 42.352777 -3.525518 0.087147 -15.055093 -8.508458 1.823680 4.964914 3.005157 -10.534257 0.000000 0.000000 0.000000 2.979495 9.850501 -0.352011 8.244450 -0.878950 5.619174 4.572548 -0.133770 1.103320 0.008682 -0.357821 0.042920 0.000000 0.000000 0.000000 6.330893 3.073899 1.012108 -1.369758 0.290986 -3.361213 -18.832126 -20.931707 -11.484875 0.000000 0.000000 0.000000 5.080384 1.697918 0.088944 3.476286 -9.237469 -10.309028 2.871388 -1.376475 -0.825078 -15.842585 -3.247039 -68.119089 0.516829 -35.585999 -1.690148 0.000000 0.000000 0.000000 7.114521 2.000974 0.736044 0.511551 13.995419 7.953586 0.074334 -1.242602 1.748567 -9.395284 -4.752814 64.284456 -9.031857 23.594523 10.079699 0.000000 0.000000 0.000000 
4.483397 105.227119 -3.362797 0.000000 0.000000 0.000000 2.028804 7.008435 0.761243 -39.673642 8.284588 14.444535 46.637351 13.154861 -0.836021 7.714571 7.241290 -14.097820 -11.484340 -0.338546 -3.990460 0.000000 0.000000 0.000000 2.992060 6.205674 1.101157 -27.202526 -6.130950 -0.031678 41.786896 -3.648427 0.108421 -16.031649 -8.315533 1.936863 4.551034 2.981201 -10.180093 0.000000 0.000000 0.000000 3.146290 9.852419 0.346670 7.921188 -0.900057 5.473799 4.491217 -0.052908 1.091766 0.019205 -0.333949 0.066153 0.000000 0.000000 0.000000 6.279677 3.172139 0.962750 -1.091311 -0.041400 -3.546431 -18.857406 -22.627939 -10.915500 0.000000 0.000000 0.000000 5.021918 1.762923 0.079458 3.440955 -9.096447 -10.682833 2.636387 -1.212877 -0.741204 -15.796414 -3.431888 -68.601594 0.545104 -35.753090 -1.686630 0.000000 0.000000 0.000000 7.004880 2.071838 0.739933 0.487905 13.595621 8.290890 -0.125204 -1.275027 1.142505 -9.106363 -5.691160 63.668360 -9.011693 23.229398 10.207112 0.000000 0.000000 0.000000 
4.377217 106.074188 -1.909348 0.000000 0.000000 0.000000 2.336492 6.709000 1.909365 -40.286382 9.548744 12.539685 42.809146 11.540356 0.257863 8.034649 4.381426 -13.340361 -9.466368 -0.561013 -2.991913 0.000000 0.000000 0.000000 3.463777 6.112317 2.114187 -25.918930 -5.550710 -0.357753 41.125501 -3.740296 0.131460 -17.147484 -8.035863 1.899593 4.336091 2.916511 -9.202030 0.000000 0.000000 0.000000 3.269840 9.646093 1.334297 7.556956 -0.991123 5.188478 4.446264 0.048593 1.054080 0.052923 -0.274430 0.048128 0.000000 0.000000 0.000000 6.157578 3.297341 0.881578 -0.730430 -0.427859 -3.802235 -18.512803 -24.901097 -10.242360 0.000000 0.000000 0.000000 4.943380 1.833598 0.070009 3.355314 -8.761277 -11.173644 2.224532 -0.929765 -0.462215 -15.225390 -3.877936 -69.047304 0.605527 -35.939322 -1.668024 0.000000 0.000000 0.000000 6.870970 2.167717 0.711225 0.432352 12.977762 8.633354 -0.335333 -1.086827 0.860804 -8.624667 -6.523109 62.736811 -9.017548 22.934940 10.426188 0.000000 0.000000 0.000000 
4.420848 106.994766 -0.426861 0.000000 0.000000 0.000000 2.932745 6.619262 3.170863 -41.118005 10.881590 10.568024 38.227134 10.085677 1.060826 8.221989 1.695869 -11.800900 -5.996040 -0.765118 -2.010087 0.000000 0.000000 0.000000 4.146595 6.115517 3.216064 -24.578936 -4.575370 -0.894214 40.489225 -3.618953 0.143027 -18.263229 -7.522852 1.901771 4.285036 2.825102 -7.733197 0.000000 0.000000 0.000000 3.559156 9.227053 2.444915 7.139631 -1.142741 4.798389 4.438608 0.146844 0.997835 0.081896 -0.202561 -0.015579 0.000000 0.000000 0.000000 5.995324 3.421636 0.797879 -0.384691 -0.797752 -4.090263 -17.732612 -27.272518 -9.638365 0.000000 0.000000 0.000000 4.844824 1.902324 0.070982 3.238459 -8.166470 -11.736057 1.631605 -0.709566 -0.120018 -14.238398 -4.471371 -69.325594 0.574962 -36.188968 -1.684139 0.000000 0.000000 0.000000 6.723541 2.268031 0.666133 0.340713 12.206655 8.975710 -0.526148 -0.770005 0.874821 -8.001249 -7.363611 61.592856 -9.075505 22.923365 10.730570 0.000000 0.000000 0.000000 
4.501123 107.807663 1.156944 0.000000 0.000000 0.000000 3.745831 6.440475 4.340493 -42.068009 11.952137 8.911949 33.260200 8.772280 1.555823 8.557973 -0.486313 -9.790152 -1.907969 -0.917794 -1.110960 0.000000 0.000000 0.000000 5.019022 6.176529 4.281321 -23.393613 -3.434440 -1.613632 39.897546 -3.236566 0.134301 -19.381782 -6.769797 2.041326 4.256668 2.742666 -6.034806 0.000000 0.000000 0.000000 4.077890 8.683938 3.498240 6.686416 -1.294800 4.323503 4.456052 0.253278 0.922257 0.092151 -0.099723 -0.085136 0.000000 0.000000 0.000000 5.817983 3.537734 0.711842 -0.151447 -1.079939 -4.351229 -16.579017 -29.228015 -9.288062 0.000000 0.000000 0.000000 4.765598 1.980750 0.079621 3.111729 -7.337334 -12.333976 1.128171 -0.573311 0.298608 -13.054505 -5.023861 -69.316994 0.452302 -36.589095 -1.712503 0.000000 0.000000 0.000000 6.574755 2.380007 0.611349 0.201565 11.337099 9.349007 -0.545688 -0.338043 1.050244 -7.250398 -8.318765 60.415277 -9.200252 23.363437 11.102200 0.000000 0.000000 0.000000 
4.549806 108.478973 2.938072 0.000000 0.000000 0.000000 4.685687 6.078117 5.258237 -43.137818 12.646147 7.752668 28.547655 7.663436 1.728574 9.262297 -2.004415 -7.714404 1.892425 -0.988566 -0.462315 0.000000 0.000000 0.000000 6.044383 6.038280 5.218743 -22.302212 -2.370744 -2.324738 39.332385 -2.711044 0.115003 -20.708196 -5.960803 2.378422 4.295679 2.652846 -4.422900 0.000000 0.000000 0.000000 4.790512 7.928297 4.341775 6.182690 -1.355806 3.823640 4.489104 0.411287 0.844919 0.111835 0.032362 -0.079369 0.000000 0.000000 0.000000 5.629751 3.663588 0.625945 -0.093475 -1.266390 -4.518066 -15.194914 -30.522784 -9.199855 0.000000 0.000000 0.000000 4.669502 2.088986 0.072662 2.986413 -6.441491 -12.886355 0.926111 -0.591987 0.798765 -12.000752 -5.176223 -68.897416 0.396301 -37.124919 -1.631114 0.000000 0.000000 0.000000 6.411899 2.517346 0.538461 0.023300 10.385686 9.807034 -0.477659 0.247872 1.089238 -6.353858 -9.476157 59.488919 -9.375428 24.200537 11.503324 0.000000 0.000000 0.000000 
